# File created by Blade
# Date/Time:  Mon Sep 22 16:45:27 2014
# Frame Rate: 120.000 fps
#------------------------------------------------------
:FULLY-SPECIFIED
:DEGREES
3240
root 5.349791 39.376728 1.769763 19.177925 21.135687 51.897555
RightUpLeg 1.674748 -23.798598 -43.599990
RightLeg 19.035398 -0.000000 -0.000000
RightFoot -25.775387 -21.671560 18.012229
RightToeBase 3.872971 -0.000000 -0.000000
LeftUpLeg -31.532976 43.103235 12.927919
LeftLeg 119.013964 -0.000000 -0.000000
LeftFoot 30.469171 13.702488 -32.500280
LeftToeBase -3.156789 -0.000000 0.000000
Spine 13.360625 -0.597400 -22.468474
RightShoulder -2.617027 -14.830832 -22.906937
RightArm -9.806947 51.094667 45.258120
RightForeArm -13.342253 -0.000000 137.666629
RightHand -5.814356 -0.000000 -26.509797
RightHandThumb1 -24.326973 -0.000000 -32.862282
LeftShoulder -29.398221 28.832094 -9.823324
LeftArm 27.345229 -26.118233 -66.424197
LeftForeArm 24.293567 -0.000000 81.070742
LeftHand -22.949847 -0.000000 14.230045
LeftHandThumb1 -26.253704 0.000000 33.147579
Head 4.521872 -21.124131 -20.166017
3241
root 5.353274 39.381255 1.763701 19.485032 21.238497 52.085126
RightUpLeg 1.588410 -23.954512 -43.688289
RightLeg 19.052288 -0.000000 -0.000000
RightFoot -25.867649 -21.784698 18.136639
RightToeBase 3.952110 -0.000000 -0.000000
LeftUpLeg -31.249412 42.842652 13.171362
LeftLeg 118.949656 -0.000000 -0.000000
LeftFoot 30.428098 13.718188 -32.456879
LeftToeBase -3.157821 -0.000000 0.000000
Spine 13.163249 -0.799523 -22.574470
RightShoulder -2.685324 -14.907020 -22.912651
RightArm -10.012614 51.343774 45.197597
RightForeArm -13.262420 -0.000000 137.619416
RightHand -6.061926 -0.000000 -26.592134
RightHandThumb1 -24.326973 -0.000000 -32.862282
LeftShoulder -29.317908 28.801321 -9.833700
LeftArm 27.725683 -26.130105 -66.252401
LeftForeArm 24.097241 -0.000000 81.126650
LeftHand -22.838022 -0.000000 14.118290
LeftHandThumb1 -26.253704 0.000000 33.147579
Head 4.466471 -21.134259 -20.101623
3242
root 5.354846 39.385723 1.758107 19.752574 21.340038 52.267983
RightUpLeg 1.515960 -24.000421 -43.757350
RightLeg 19.077643 -0.000000 -0.000000
RightFoot -25.956028 -22.019561 18.232857
RightToeBase 3.994531 -0.000000 -0.000000
LeftUpLeg -30.898344 42.599474 13.456378
LeftLeg 118.887494 -0.000000 -0.000000
LeftFoot 30.348556 13.813671 -32.503209
LeftToeBase -3.139172 -0.000000 0.000000
Spine 13.010422 -1.015784 -22.674003
RightShoulder -2.705334 -14.944479 -22.959053
RightArm -10.275277 51.591259 45.126831
RightForeArm -13.233677 -0.000000 137.556452
RightHand -5.864534 -0.000000 -26.583351
RightHandThumb1 -24.326973 -0.000000 -32.862282
LeftShoulder -29.165334 28.755604 -9.821995
LeftArm 28.027986 -26.172397 -66.030440
LeftForeArm 23.987537 -0.000000 81.210194
LeftHand -22.961730 -0.000000 14.173046
LeftHandThumb1 -26.253704 0.000000 33.147579
Head 4.427924 -21.110358 -20.112281
3243
root 5.356457 39.389517 1.754112 20.026083 21.457905 52.463577
RightUpLeg 1.463537 -24.031217 -43.830915
RightLeg 19.096287 -0.000000 -0.000000
RightFoot -26.066822 -22.275955 18.359321
RightToeBase 4.010666 -0.000000 -0.000000
LeftUpLeg -30.536709 42.384003 13.742766
LeftLeg 118.843643 -0.000000 -0.000000
LeftFoot 30.268700 13.836524 -32.399443
LeftToeBase -3.209454 -0.000000 0.000000
Spine 12.885673 -1.263178 -22.789531
RightShoulder -2.768348 -14.949045 -22.993045
RightArm -10.428770 51.788981 45.143928
RightForeArm -13.123138 -0.000000 137.528710
RightHand -5.781919 0.000000 -26.971617
RightHandThumb1 -24.326973 -0.000000 -32.862282
LeftShoulder -29.039420 28.679735 -9.793127
LeftArm 28.340766 -26.163693 -65.813332
LeftForeArm 23.923565 -0.000000 81.267378
LeftHand -22.956171 0.000000 14.484063
LeftHandThumb1 -26.253704 0.000000 33.147579
Head 4.310974 -21.123952 -20.101143
3244
root 5.358863 39.392572 1.750330 20.300281 21.594049 52.667478
RightUpLeg 1.438678 -24.154825 -43.938046
RightLeg 19.123365 -0.000000 -0.000000
RightFoot -26.133183 -22.420146 18.416622
RightToeBase 4.070599 -0.000000 -0.000000
LeftUpLeg -30.160525 42.158296 14.049506
LeftLeg 118.806284 -0.000000 -0.000000
LeftFoot 30.108497 13.986356 -32.671699
LeftToeBase -2.627677 -0.000000 0.000000
Spine 12.788228 -1.521037 -22.909416
RightShoulder -2.890579 -14.964877 -23.000967
RightArm -10.529457 51.947355 45.163758
RightForeArm -13.153572 -0.000000 137.473170
RightHand -5.706118 -0.000000 -26.950120
RightHandThumb1 -24.326973 -0.000000 -32.862282
LeftShoulder -28.922337 28.579250 -9.796749
LeftArm 28.728343 -26.177756 -65.622025
LeftForeArm 23.905160 -0.000000 81.340608
LeftHand -22.911362 0.000000 14.463991
LeftHandThumb1 -26.253704 0.000000 33.147579
Head 4.120905 -21.146708 -20.042686
3245
root 5.357983 39.395781 1.743852 20.580420 21.697381 52.889150
RightUpLeg 1.376937 -24.198670 -44.044149
RightLeg 19.161406 -0.000000 -0.000000
RightFoot -26.196372 -22.661456 18.442564
RightToeBase 4.066079 -0.000000 -0.000000
LeftUpLeg -29.787281 41.985005 14.303066
LeftLeg 118.770837 -0.000000 -0.000000
LeftFoot 30.076105 14.043445 -32.649036
LeftToeBase -2.929524 -0.000000 0.000000
Spine 12.675179 -1.782243 -23.087574
RightShoulder -2.925410 -14.924323 -23.009605
RightArm -10.740172 52.077527 45.099010
RightForeArm -13.117827 -0.000000 137.419703
RightHand -5.902082 0.000000 -26.842233
RightHandThumb1 -24.326973 -0.000000 -32.862282
LeftShoulder -28.761931 28.473064 -9.734146
LeftArm 29.031917 -26.177799 -65.381279
LeftForeArm 23.835486 0.000000 81.448958
LeftHand -22.941482 -0.000000 14.410172
LeftHandThumb1 -26.253704 0.000000 33.147579
Head 4.015956 -21.158838 -20.009768
3246
root 5.354283 39.398292 1.733312 20.878897 21.792625 53.102135
RightUpLeg 1.275727 -24.147790 -44.109687
RightLeg 19.203584 -0.000000 -0.000000
RightFoot -26.329239 -22.950084 18.558240
RightToeBase 4.138162 -0.000000 -0.000000
LeftUpLeg -29.443052 41.839919 14.547452
LeftLeg 118.756728 -0.000000 -0.000000
LeftFoot 30.171675 13.952708 -32.445870
LeftToeBase -3.136863 -0.000000 0.000000
Spine 12.579037 -2.045592 -23.255030
RightShoulder -3.019125 -14.879592 -22.997555
RightArm -10.860415 52.198386 45.075923
RightForeArm -13.137204 -0.000000 137.369122
RightHand -5.820495 0.000000 -26.814168
RightHandThumb1 -24.326973 -0.000000 -32.862282
LeftShoulder -28.618992 28.359192 -9.722938
LeftArm 29.403674 -26.169451 -65.103258
LeftForeArm 23.742862 0.000000 81.522773
LeftHand -22.800827 0.000000 14.354783
LeftHandThumb1 -26.253704 0.000000 33.147579
Head 3.771934 -21.181919 -19.918798
3247
root 5.347267 39.399219 1.719788 21.200453 21.925506 53.300705
RightUpLeg 1.183628 -24.181548 -44.160197
RightLeg 19.238195 -0.000000 -0.000000
RightFoot -26.479401 -23.155552 18.688236
RightToeBase 4.273623 -0.000000 -0.000000
LeftUpLeg -29.166876 41.644939 14.777528
LeftLeg 118.758537 -0.000000 -0.000000
LeftFoot 30.214370 13.821978 -32.335473
LeftToeBase -2.911242 -0.000000 0.000000
Spine 12.484621 -2.339710 -23.391054
RightShoulder -3.095242 -14.824190 -22.968426
RightArm -11.084549 52.337275 44.934515
RightForeArm -13.124885 -0.000000 137.339009
RightHand -5.879425 -0.000000 -26.952637
RightHandThumb1 -24.326973 -0.000000 -32.862282
LeftShoulder -28.457392 28.215914 -9.674188
LeftArm 29.778811 -26.112078 -64.835120
LeftForeArm 23.665930 -0.000000 81.592545
LeftHand -22.792693 -0.000000 14.477714
LeftHandThumb1 -26.253704 0.000000 33.147579
Head 3.507808 -21.198237 -19.818693
3248
root 5.340603 39.402343 1.705619 21.508638 22.061770 53.525880
RightUpLeg 1.140264 -24.180913 -44.240539
RightLeg 19.228170 -0.000000 -0.000000
RightFoot -26.539045 -23.467800 18.727343
RightToeBase 4.191278 -0.000000 -0.000000
LeftUpLeg -28.861255 41.450731 14.989374
LeftLeg 118.762878 -0.000000 -0.000000
LeftFoot 30.287785 13.677769 -32.198024
LeftToeBase -3.056640 -0.000000 0.000000
Spine 12.436191 -2.627907 -23.545382
RightShoulder -3.174408 -14.755378 -22.947713
RightArm -11.320961 52.460258 44.797733
RightForeArm -13.132229 -0.000000 137.322482
RightHand -5.825228 0.000000 -27.051487
RightHandThumb1 -24.326973 -0.000000 -32.862282
LeftShoulder -28.275967 28.103107 -9.663363
LeftArm 30.206043 -26.082163 -64.563753
LeftForeArm 23.606722 0.000000 81.644209
LeftHand -22.673667 0.000000 14.662559
LeftHandThumb1 -26.253704 0.000000 33.147579
Head 3.215136 -21.234880 -19.732545
3249
root 5.333289 39.404759 1.688837 21.836941 22.225829 53.759599
RightUpLeg 1.094429 -24.158207 -44.308906
RightLeg 19.237049 -0.000000 -0.000000
RightFoot -26.692480 -23.763044 18.884425
RightToeBase 4.269344 -0.000000 -0.000000
LeftUpLeg -28.608489 41.247113 15.171208
LeftLeg 118.799955 -0.000000 -0.000000
LeftFoot 30.277786 13.602380 -32.164538
LeftToeBase -3.027735 -0.000000 0.000000
Spine 12.385975 -2.964263 -23.698506
RightShoulder -3.238053 -14.698533 -22.932790
RightArm -11.535345 52.596944 44.676719
RightForeArm -13.166056 -0.000000 137.303900
RightHand -5.730437 0.000000 -27.113241
RightHandThumb1 -24.326973 -0.000000 -32.862282
LeftShoulder -28.139026 28.023997 -9.699822
LeftArm 30.764309 -26.053079 -64.325690
LeftForeArm 23.582681 0.000000 81.678846
LeftHand -22.643370 -0.000000 14.584916
LeftHandThumb1 -26.253704 0.000000 33.147579
Head 2.924134 -21.247361 -19.633325
3250
root 5.324395 39.406192 1.669088 22.185978 22.414728 53.981379
RightUpLeg 1.047628 -24.240568 -44.371077
RightLeg 19.246947 -0.000000 -0.000000
RightFoot -26.804033 -23.997135 18.994996
RightToeBase 4.303235 -0.000000 -0.000000
LeftUpLeg -28.412828 41.054990 15.352956
LeftLeg 118.851843 -0.000000 -0.000000
LeftFoot 30.205547 13.722195 -32.393256
LeftToeBase -2.750715 -0.000000 0.000000
Spine 12.336690 -3.328681 -23.813001
RightShoulder -3.312101 -14.704694 -22.931222
RightArm -11.667692 52.735694 44.623879
RightForeArm -13.195107 -0.000000 137.312889
RightHand -5.753489 -0.000000 -27.318861
RightHandThumb1 -24.326973 -0.000000 -32.862282
LeftShoulder -27.969420 27.923060 -9.712327
LeftArm 31.277618 -25.976405 -64.083618
LeftForeArm 23.543544 -0.000000 81.716156
LeftHand -22.535579 0.000000 14.665972
LeftHandThumb1 -26.253704 0.000000 33.147579
Head 2.615584 -21.288697 -19.585869
3251
root 5.315456 39.408424 1.654239 22.533723 22.589651 54.221411
RightUpLeg 1.020029 -24.355310 -44.464995
RightLeg 19.246389 -0.000000 -0.000000
RightFoot -26.903900 -24.189896 19.078857
RightToeBase 4.369864 -0.000000 -0.000000
LeftUpLeg -28.148398 40.926626 15.544440
LeftLeg 118.906737 -0.000000 -0.000000
LeftFoot 30.245373 13.642939 -32.101407
LeftToeBase -2.852740 -0.000000 0.000000
Spine 12.275603 -3.680255 -23.960279
RightShoulder -3.331378 -14.729614 -22.933956
RightArm -11.913508 52.888661 44.502938
RightForeArm -13.257644 -0.000000 137.358287
RightHand -5.776528 -0.000000 -27.451041
RightHandThumb1 -24.326973 -0.000000 -32.862282
LeftShoulder -27.827853 27.837979 -9.771552
LeftArm 31.881459 -25.884450 -63.794036
LeftForeArm 23.458365 -0.000000 81.705990
LeftHand -22.524984 -0.000000 14.727792
LeftHandThumb1 -26.253704 0.000000 33.147579
Head 2.316755 -21.250423 -19.514456
3252
root 5.304440 39.410012 1.639551 22.828742 22.805247 54.442977
RightUpLeg 1.053289 -24.470900 -44.549093
RightLeg 19.246472 -0.000000 -0.000000
RightFoot -26.997807 -24.372661 19.181658
RightToeBase 4.397712 -0.000000 -0.000000
LeftUpLeg -27.839185 40.783882 15.809616
LeftLeg 118.982299 -0.000000 -0.000000
LeftFoot 30.199767 13.674856 -31.988583
LeftToeBase -2.858498 -0.000000 0.000000
Spine 12.310636 -4.031781 -24.065974
RightShoulder -3.383253 -14.752092 -22.938530
RightArm -12.075153 53.057915 44.449906
RightForeArm -13.306585 -0.000000 137.384445
RightHand -5.711279 -0.000000 -27.610168
RightHandThumb1 -24.326973 -0.000000 -32.862282
LeftShoulder -27.627659 27.742415 -9.802571
LeftArm 32.488138 -25.792056 -63.545224
LeftForeArm 23.375144 -0.000000 81.692543
LeftHand -22.582593 0.000000 14.868275
LeftHandThumb1 -26.253704 0.000000 33.147579
Head 2.004096 -21.277486 -19.483602
